<?xml version="1.0" standalone="no"?>
<!DOCTYPE svg PUBLIC "-//W3C//DTD SVG 20010904//EN"
 "http://www.w3.org/TR/2001/REC-SVG-20010904/DTD/svg10.dtd">
<svg version="1.0" xmlns="http://www.w3.org/2000/svg"
 width="892.000000pt" height="885.000000pt" viewBox="0 0 892.000000 885.000000"
 preserveAspectRatio="xMidYMid meet">

<g transform="translate(0.000000,885.000000) scale(0.100000,-0.100000)"
fill="#000000" stroke="none">
<path d="M5760 8762 c0 -77 1 -80 25 -86 35 -9 102 -72 126 -117 23 -45 25
-134 5 -183 -18 -43 -80 -102 -122 -118 l-34 -12 0 -78 c0 -71 2 -78 20 -78
41 0 131 43 178 86 l50 44 202 0 c283 0 320 -13 340 -119 15 -79 14 -3502 -1
-3573 -17 -78 -52 -140 -109 -191 -70 -63 -144 -91 -245 -91 -139 -1 -145 4
-620 476 l-410 408 -7 -132 c-4 -73 -4 -231 -1 -350 l6 -217 256 -254 c268
-267 345 -328 473 -380 138 -55 296 -70 440 -43 341 66 603 290 688 589 40
143 41 196 38 2047 l-3 1785 -22 78 c-34 117 -77 192 -163 277 -85 86 -161
128 -285 161 -67 17 -121 22 -333 26 l-254 6 -41 35 c-47 40 -104 67 -159 77
l-38 7 0 -80z"/>
<path d="M4466 7321 c-3 -93 -3 -249 0 -347 l6 -179 578 -580 578 -580 7 -68
c26 -264 302 -420 542 -308 247 116 295 438 93 624 -66 62 -131 91 -226 102
l-61 7 -379 379 c-208 209 -548 546 -755 749 l-376 369 -7 -168z m1643 -1519
c89 -41 144 -150 121 -240 -27 -110 -109 -177 -215 -177 -126 1 -219 91 -219
215 -1 166 162 271 313 202z"/>
<path d="M7235 2837 c-72 -19 -98 -35 -90 -55 4 -9 14 -36 22 -59 8 -24 18
-45 23 -48 4 -3 28 4 51 15 56 25 82 25 154 0 100 -35 248 -23 279 22 13 18
13 26 -5 72 -12 28 -21 52 -22 53 -1 1 -30 -8 -64 -19 l-62 -20 -71 21 c-93
29 -153 33 -215 18z"/>
<path d="M303 2561 c-150 -52 -263 -183 -293 -341 -6 -30 -10 -227 -10 -456
l0 -404 70 0 69 0 3 428 c3 420 3 428 26 472 36 73 78 116 144 149 111 56 235
38 328 -46 99 -89 95 -65 98 -565 l3 -438 69 0 70 0 0 433 c0 400 -1 438 -19
489 -46 135 -151 238 -284 280 -77 24 -204 24 -274 -1z"/>
<path d="M1343 2561 c-109 -40 -204 -129 -256 -239 l-32 -67 -3 -262 c-3 -213
-1 -273 12 -323 43 -167 183 -292 361 -323 185 -32 380 73 466 248 l34 70 3
269 c4 288 0 320 -45 413 -34 69 -136 166 -210 200 -79 36 -249 43 -330 14z
m272 -145 c64 -29 138 -111 160 -176 14 -41 16 -88 13 -297 l-3 -248 -30 -54
c-77 -139 -245 -196 -386 -130 -65 31 -119 83 -151 147 -22 45 -23 55 -23 302
l0 255 28 57 c33 66 100 130 160 152 67 23 173 20 232 -8z"/>
<path d="M3485 2563 c-122 -44 -214 -127 -268 -241 l-32 -67 -3 -447 -3 -448
71 0 70 0 0 220 0 220 300 0 300 0 0 -220 0 -220 70 0 70 0 0 424 c0 387 -2
429 -19 485 -39 125 -120 218 -239 274 -59 28 -79 32 -167 34 -77 3 -112 -1
-150 -14z m260 -151 c64 -31 111 -77 147 -145 20 -36 23 -61 26 -184 l4 -143
-302 0 -302 0 4 143 c3 130 6 146 30 192 77 147 247 206 393 137z"/>
<path d="M5965 2567 c-148 -50 -262 -168 -300 -312 -12 -49 -15 -133 -15 -477
l0 -418 70 0 69 0 3 428 c3 410 4 429 24 473 31 67 78 114 146 149 150 74 326
11 399 -145 l29 -60 0 -422 0 -423 70 0 71 0 -3 448 -3 447 -32 68 c-44 93
-119 169 -211 215 -70 34 -82 37 -176 39 -64 2 -116 -2 -141 -10z"/>
<path d="M7295 2567 c-104 -35 -203 -111 -252 -195 -61 -103 -63 -124 -63
-588 l0 -424 70 0 70 0 0 220 0 220 300 0 300 0 0 -220 0 -220 70 0 71 0 -3
448 -3 447 -32 68 c-44 93 -119 169 -211 215 -70 34 -82 37 -176 39 -64 2
-116 -2 -141 -10z m228 -143 c66 -22 134 -87 168 -159 27 -57 29 -68 29 -192
l0 -133 -301 0 -301 0 4 138 c3 112 7 145 24 183 49 107 157 179 269 179 34 0
82 -7 108 -16z"/>
<path d="M8331 2560 c-133 -48 -237 -158 -276 -293 -14 -48 -16 -98 -13 -330
l3 -273 34 -69 c87 -177 281 -280 467 -248 177 31 325 166 363 334 16 68 14
513 -3 574 -37 141 -146 259 -283 306 -77 26 -217 26 -292 -1z m277 -144 c54
-28 112 -86 140 -140 27 -51 27 -53 30 -294 3 -203 1 -251 -13 -292 -25 -74
-74 -131 -146 -170 -57 -30 -73 -34 -139 -34 -66 0 -82 4 -138 34 -75 40 -115
85 -143 160 -19 50 -20 72 -17 300 3 244 3 245 30 296 31 58 93 118 152 145
53 25 193 22 244 -5z"/>
<path d="M4602 2117 l3 -452 34 -69 c157 -319 603 -334 784 -26 54 92 57 127
57 582 l0 418 -70 0 -69 0 -3 -427 -3 -428 -28 -57 c-111 -226 -428 -225 -539
1 -23 45 -23 52 -26 479 l-3 432 -70 0 -70 0 3 -453z"/>
<path d="M6700 1965 l0 -605 70 0 70 0 0 605 0 605 -70 0 -70 0 0 -605z"/>
<path d="M1983 2553 c2 -5 118 -275 258 -600 l254 -593 66 0 66 0 253 588
c139 323 254 593 257 600 4 10 -12 12 -73 10 l-79 -3 -209 -487 c-115 -269
-212 -488 -215 -488 -6 0 -88 189 -325 742 l-101 238 -78 0 c-43 0 -76 -3 -74
-7z"/>
</g>
</svg>
